<?xml version="1.0" standalone="no"?>
<!DOCTYPE svg PUBLIC "-//W3C//DTD SVG 20010904//EN"
 "http://www.w3.org/TR/2001/REC-SVG-20010904/DTD/svg10.dtd">
<svg version="1.0" xmlns="http://www.w3.org/2000/svg"
 width="908.000000pt" height="274.000000pt" viewBox="0 0 908.000000 274.000000"
 preserveAspectRatio="xMidYMid meet">

<g transform="translate(0.000000,274.000000) scale(0.100000,-0.100000)"
fill="#000000" stroke="none">
<path d="M6629 2725 c-410 -56 -779 -277 -1034 -619 l-59 -79 74 -68 c41 -38
82 -74 91 -79 13 -7 29 7 79 70 173 221 407 388 650 465 152 49 233 60 430 59
258 -1 412 -35 615 -136 179 -90 383 -270 507 -447 l17 -24 43 36 c24 20 65
56 92 79 l48 44 -60 79 c-225 299 -508 494 -837 579 -211 55 -448 69 -656 41z"/>
<path d="M640 2629 c-453 -336 -679 -842 -630 -1414 31 -372 176 -690 430
-945 92 -92 263 -230 286 -230 7 0 19 10 27 23 9 12 41 49 71 82 31 33 56 63
56 66 0 3 -36 34 -81 69 -218 172 -386 405 -463 643 -48 148 -60 237 -60 442
0 207 10 281 65 447 80 245 258 483 492 658 25 19 47 38 47 41 0 6 -149 179
-155 179 -2 0 -40 -27 -85 -61z"/>
<path d="M2240 2670 c-8 -10 -43 -50 -78 -88 l-62 -70 67 -53 c333 -260 507
-567 544 -964 24 -262 -18 -507 -126 -730 -87 -180 -231 -354 -407 -492 l-77
-60 76 -86 c41 -48 78 -87 82 -87 28 0 208 148 313 259 190 199 318 445 379
731 20 91 23 135 24 325 0 235 -6 286 -55 460 -72 253 -194 459 -386 651 -77
76 -258 224 -274 223 -3 0 -12 -8 -20 -19z"/>
<path d="M3300 1370 l0 -1280 145 0 145 0 0 605 0 605 658 -2 657 -3 3 -602 2
-603 145 0 145 0 0 1280 0 1280 -145 0 -145 0 0 -530 0 -530 -660 0 -660 0 0
530 0 530 -145 0 -145 0 0 -1280z"/>
<path d="M8480 1635 l0 -1015 300 0 300 0 0 160 0 160 -155 0 -155 0 0 855 0
855 -145 0 -145 0 0 -1015z"/>
<path d="M5632 792 c-45 -42 -82 -81 -82 -85 0 -21 125 -172 220 -267 123
-123 246 -210 403 -285 246 -118 466 -162 752 -152 454 16 851 206 1131 540
41 49 87 107 102 129 l27 41 -65 59 c-36 32 -77 67 -91 78 l-26 19 -31 -42
c-45 -63 -169 -197 -235 -254 -232 -204 -536 -313 -869 -313 -442 0 -791 167
-1073 515 -43 52 -78 95 -79 95 0 -1 -38 -35 -84 -78z"/>
<path d="M8625 453 c-139 -73 -175 -252 -75 -366 47 -54 105 -79 180 -79 99 0
180 52 216 138 18 43 18 145 1 187 -21 49 -67 98 -112 118 -51 24 -167 25
-210 2z"/>
</g>
</svg>
